<?xml version="1.0" encoding="UTF-8"?>
<!DOCTYPE svg PUBLIC "-//W3C//DTD SVG 1.1//EN" "http://www.w3.org/Graphics/SVG/1.1/DTD/svg11.dtd">
<!-- Creator: CorelDRAW -->
<svg xmlns="http://www.w3.org/2000/svg" xml:space="preserve" width="6.82666in" height="6.82666in" style="shape-rendering:geometricPrecision; text-rendering:geometricPrecision; image-rendering:optimizeQuality; fill-rule:evenodd; clip-rule:evenodd"
viewBox="0 0 6.82666 6.82666"
 xmlns:xlink="http://www.w3.org/1999/xlink">
 <defs>
  <style type="text/css">
   <![CDATA[
    .str0 {stroke:#FFFFFE;stroke-width:0.213335;stroke-linecap:round;stroke-linejoin:round}
    .fil2 {fill:none}
    .fil0 {fill:#FF5722}
    .fil1 {fill:#FFFFFE}
   ]]>
  </style>
 </defs>
 <g id="Layer_x0020_1">
  <metadata id="CorelCorpID_0Corel-Layer"/>
  <rect class="fil0" width="6.82666" height="6.82666" rx="0.853335" ry="0.853335"/>
  <path class="fil1" d="M1.18667 1.82666l4.45333 0c0.0733346,0 0.133331,0.06 0.133331,0.133331l0 2.61334c0,0.0733307 -0.06,0.133331 -0.133331,0.133331l-4.45333 0c-0.0733307,0 -0.133331,-0.0599961 -0.133331,-0.133331l0 -2.61334c0,-0.0733346 0.0599961,-0.133331 0.133331,-0.133331zm2.30667 0.692047l0 0.609606 0.527752 -0.304701c-0.0149252,-0.0904252 0.0262638,-0.184685 0.110327,-0.233217 0.10839,-0.0625787 0.246992,-0.0254409 0.309571,0.0829528 0.0625787,0.10839 0.0254409,0.246992 -0.0829528,0.309571 -0.084063,0.0485315 -0.186283,0.0370748 -0.257134,-0.0210709l-0.527949 0.304811 0.527969 0.304823c0.00942913,-0.00772047 0.0195945,-0.0147953 0.0304961,-0.0210866 0.10839,-0.0625787 0.246992,-0.0254409 0.309571,0.0829528 0.0625787,0.10839 0.0254409,0.246992 -0.0829528,0.309571 -0.10839,0.0625787 -0.246992,0.0254409 -0.309571,-0.0829528 -0.0272913,-0.0472717 -0.0356181,-0.100291 -0.0273346,-0.15024l-0.527791 -0.30472 0 0.609622c0.0473228,0.0178228 0.0890079,0.0515118 0.116264,0.0987244 0.0625787,0.10839 0.0254409,0.246992 -0.0829528,0.309571 -0.10839,0.0625787 -0.246992,0.0254409 -0.309571,-0.0829528 -0.0625787,-0.10839 -0.0254409,-0.246992 0.0829528,-0.309571 0.0108346,-0.00625591 0.0219764,-0.0115 0.0333071,-0.0157913l0 -0.609606 -0.527748 0.304697c0.0149291,0.0904291 -0.0262598,0.184689 -0.110327,0.233224 -0.10839,0.0625787 -0.246992,0.0254409 -0.309571,-0.0829528 -0.0625787,-0.10839 -0.0254409,-0.246992 0.0829528,-0.309571 0.0840591,-0.0485315 0.186283,-0.0370748 0.25713,0.0210669l0.527937 -0.304807 -0.527961 -0.304819c-0.00942913,0.00772047 -0.0195906,0.0147874 -0.0304882,0.0210787 -0.10839,0.0625787 -0.246992,0.0254409 -0.309571,-0.0829528 -0.0625787,-0.10839 -0.0254409,-0.246992 0.0829528,-0.309571 0.10839,-0.0625787 0.246992,-0.0254409 0.309571,0.0829528 0.0272953,0.0472717 0.0356142,0.100295 0.0273307,0.150248l0.527791 0.30472 0 -0.60963c-0.0473228,-0.0178189 -0.0890079,-0.0515118 -0.116264,-0.0987244 -0.0625787,-0.10839 -0.0254409,-0.246992 0.0829528,-0.309571 0.10839,-0.0625787 0.246992,-0.0254409 0.309571,0.0829528 0.0625787,0.10839 0.0254409,0.246992 -0.0829528,0.309571 -0.0108346,0.00625591 -0.0219764,0.0115 -0.0333071,0.0157913z"/>
  <line class="fil2 str0" x1="0.853327" y1="4.99999" x2="5.97333" y2= "4.99999" />
 </g>
</svg>
